<?xml version="1.0" encoding="UTF-8" standalone="no"?>
<!-- Created with Inkscape (http://www.inkscape.org/) -->

<svg
   xmlns:dc="http://purl.org/dc/elements/1.1/"
   xmlns:cc="http://creativecommons.org/ns#"
   xmlns:rdf="http://www.w3.org/1999/02/22-rdf-syntax-ns#"
   xmlns:svg="http://www.w3.org/2000/svg"
   xmlns="http://www.w3.org/2000/svg"
   xmlns:sodipodi="http://sodipodi.sourceforge.net/DTD/sodipodi-0.dtd"
   xmlns:inkscape="http://www.inkscape.org/namespaces/inkscape"
   width="1656.8333"
   height="1175.9833"
   viewBox="0 0 438.37046 311.14558"
   version="1.1"
   id="svg8"
   inkscape:version="0.92.2 (5c3e80d, 2017-08-06)"
   sodipodi:docname="logo-triangle.svg">
  <defs
     id="defs2" />
  <sodipodi:namedview
     id="base"
     pagecolor="#ffffff"
     bordercolor="#666666"
     borderopacity="1.0"
     inkscape:pageopacity="0.0"
     inkscape:pageshadow="2"
     inkscape:zoom="0.35"
     inkscape:cx="948.04922"
     inkscape:cy="751.43536"
     inkscape:document-units="mm"
     inkscape:current-layer="layer1"
     showgrid="false"
     inkscape:window-width="1920"
     inkscape:window-height="1035"
     inkscape:window-x="0"
     inkscape:window-y="23"
     inkscape:window-maximized="0"
     units="px"
     fit-margin-top="0"
     fit-margin-left="0"
     fit-margin-right="0"
     fit-margin-bottom="0" />
  <metadata
     id="metadata5">
    <rdf:RDF>
      <cc:Work
         rdf:about="">
        <dc:format>image/svg+xml</dc:format>
        <dc:type
           rdf:resource="http://purl.org/dc/dcmitype/StillImage" />
        <dc:title></dc:title>
      </cc:Work>
    </rdf:RDF>
  </metadata>
  <g
     inkscape:label="Layer 1"
     inkscape:groupmode="layer"
     id="layer1"
     transform="translate(47.377666,-48.095204)">
    <g
       id="g1028"
       transform="matrix(1.3049507,0,0,1.3049507,33.954828,6.7795347)">
      <path
         inkscape:connector-curvature="0"
         id="path899"
         d="M 43.278274,157.14881 H 96.19494 L 132.16478,84.119819 105.64434,31.660713 Z"
         style="fill:#dc0000;fill-opacity:1;fill-rule:evenodd;stroke:none;stroke-width:0.26458332000000001px;stroke-linecap:butt;stroke-linejoin:miter;stroke-opacity:1" />
      <path
         inkscape:connector-curvature="0"
         id="path901"
         d="m 141.38558,104.29867 51.18211,103.0324 h -53.18663 l -24.5888,-50.24667 z"
         style="fill:#009100;fill-opacity:1;fill-rule:evenodd;stroke:none;stroke-width:0.26458332px;stroke-linecap:butt;stroke-linejoin:miter;stroke-opacity:1" />
      <path
         sodipodi:nodetypes="ccccc"
         inkscape:connector-curvature="0"
         id="path903"
         d="m 35.546847,173.65511 h 68.153733 l 16.03617,33.87641 H 18.708867 Z"
         style="fill:#0084c8;fill-opacity:1;fill-rule:evenodd;stroke:none;stroke-width:0.26458332000000001px;stroke-linecap:butt;stroke-linejoin:miter;stroke-opacity:1" />
    </g>
    <g
       aria-label="MarchingBytes"
       style="font-style:normal;font-variant:normal;font-weight:normal;font-stretch:normal;font-size:17.63888741px;line-height:125%;font-family:Copperplate;-inkscape-font-specification:Copperplate;letter-spacing:0px;word-spacing:0px;fill:#0084c8;fill-opacity:1;stroke:none;stroke-width:0.26458332px;stroke-linecap:butt;stroke-linejoin:miter;stroke-opacity:1"
       id="text1023"
       transform="matrix(2.3776608,0,0,2.3776608,-80.318927,-232.18785)">
      <path
         d="m 31.063424,244.08063 h -4.211285 v -10.99124 l -3.042708,7.13273 H 20.88799 l -3.042709,-7.13273 v 10.99124 h -3.990798 v -16.41519 h 4.91684 l 3.693143,8.23515 3.682118,-8.23515 h 4.91684 z"
         style="font-style:normal;font-variant:normal;font-weight:bold;font-stretch:normal;font-size:22.57777786px;font-family:sans-serif;-inkscape-font-specification:'sans-serif Bold';fill:#0084c8;fill-opacity:1;stroke-width:0.26458332px"
         id="path1030"
         inkscape:connector-curvature="0" />
      <path
         d="m 42.517678,240.85051 v -2.57969 q -0.804774,0.0661 -1.74184,0.18741 -0.937066,0.11024 -1.422136,0.26458 -0.595312,0.18742 -0.915017,0.55122 -0.30868,0.35278 -0.30868,0.93707 0,0.38585 0.06615,0.62838 0.06615,0.24254 0.33073,0.46302 0.253559,0.22049 0.606336,0.33073 0.352778,0.0992 1.102431,0.0992 0.595312,0 1.201649,-0.24253 0.617361,-0.24254 1.080382,-0.63941 z m 0,1.91823 q -0.319705,0.24253 -0.79375,0.58428 -0.474045,0.34176 -0.892969,0.54019 -0.584288,0.26459 -1.212673,0.38585 -0.628386,0.1323 -1.378038,0.1323 -1.763889,0 -2.954514,-1.09141 -1.190625,-1.09141 -1.190625,-2.78915 0,-1.35599 0.606337,-2.21588 0.606336,-0.8599 1.719791,-1.35599 1.102431,-0.4961 2.734028,-0.70556 1.631597,-0.20946 3.384462,-0.30868 v -0.0662 q 0,-1.02526 -0.837847,-1.41111 -0.837848,-0.39687 -2.469445,-0.39687 -0.981163,0 -2.094618,0.35278 -1.113455,0.34175 -1.598524,0.52916 h -0.363802 v -2.98758 q 0.628385,-0.16537 2.039496,-0.38586 1.422136,-0.23151 2.844271,-0.23151 3.384462,0 4.883767,1.04731 1.51033,1.03629 1.51033,3.2632 v 8.42257 h -3.935677 z"
         style="font-style:normal;font-variant:normal;font-weight:bold;font-stretch:normal;font-size:22.57777786px;font-family:sans-serif;-inkscape-font-specification:'sans-serif Bold';fill:#0084c8;fill-opacity:1;stroke-width:0.26458332px"
         id="path1032"
         inkscape:connector-curvature="0" />
      <path
         d="m 59.076184,235.48167 h -0.352777 q -0.253559,-0.0882 -0.815799,-0.13229 -0.56224,-0.0441 -0.937066,-0.0441 -0.848872,0 -1.499306,0.11024 -0.650434,0.11025 -1.400086,0.37483 v 8.29028 H 50.1024 v -12.3803 h 3.96875 v 1.81901 q 1.311892,-1.12448 2.282031,-1.48828 0.970139,-0.37482 1.785937,-0.37482 0.209462,0 0.474046,0.011 0.264583,0.011 0.46302,0.0331 z"
         style="font-style:normal;font-variant:normal;font-weight:bold;font-stretch:normal;font-size:22.57777786px;font-family:sans-serif;-inkscape-font-specification:'sans-serif Bold';fill:#0084c8;fill-opacity:1;stroke-width:0.26458332px"
         id="path1034"
         inkscape:connector-curvature="0" />
      <path
         d="m 67.796411,244.41136 q -1.620573,0 -2.965538,-0.38585 -1.333941,-0.38585 -2.326128,-1.19063 -0.981164,-0.80477 -1.521355,-2.02847 -0.54019,-1.2237 -0.54019,-2.86632 0,-1.73082 0.573263,-2.98759 0.584289,-1.25677 1.620573,-2.08359 1.003212,-0.78273 2.315104,-1.14653 1.311893,-0.3638 2.723004,-0.3638 1.267795,0 2.337153,0.27561 1.069357,0.2756 1.995399,0.71658 v 3.38446 h -0.56224 q -0.23151,-0.19844 -0.562239,-0.46302 -0.319705,-0.26459 -0.79375,-0.51815 -0.451997,-0.24253 -0.992188,-0.39687 -0.540191,-0.16536 -1.25677,-0.16536 -1.5875,0 -2.447396,1.01423 -0.848872,1.00321 -0.848872,2.73403 0,1.78594 0.87092,2.71198 0.881945,0.92604 2.491493,0.92604 0.749653,0 1.344966,-0.16536 0.606336,-0.17639 1.003211,-0.4079 0.374827,-0.22049 0.661459,-0.46302 0.286632,-0.24254 0.529166,-0.47405 h 0.56224 v 3.38446 q -0.937066,0.44097 -1.962326,0.69453 -1.014236,0.26459 -2.248959,0.26459 z"
         style="font-style:normal;font-variant:normal;font-weight:bold;font-stretch:normal;font-size:22.57777786px;font-family:sans-serif;-inkscape-font-specification:'sans-serif Bold';fill:#0084c8;fill-opacity:1;stroke-width:0.26458332px"
         id="path1036"
         inkscape:connector-curvature="0" />
      <path
         d="m 87.055871,244.08063 h -3.990798 v -6.14054 q 0,-0.74965 -0.07717,-1.48828 -0.07717,-0.74965 -0.264584,-1.10243 -0.220486,-0.4079 -0.650434,-0.59532 -0.418923,-0.18741 -1.179601,-0.18741 -0.540191,0 -1.10243,0.17639 -0.551215,0.17639 -1.201649,0.56224 v 8.77535 h -3.96875 v -17.15382 h 3.96875 v 6.14054 q 1.058333,-0.82683 2.028472,-1.2678 0.981163,-0.44097 2.171788,-0.44097 2.006424,0 3.130903,1.16858 1.135503,1.16857 1.135503,3.4947 z"
         style="font-style:normal;font-variant:normal;font-weight:bold;font-stretch:normal;font-size:22.57777786px;font-family:sans-serif;-inkscape-font-specification:'sans-serif Bold';fill:#0084c8;fill-opacity:1;stroke-width:0.26458332px"
         id="path1038"
         inkscape:connector-curvature="0" />
      <path
         d="m 94.684694,244.08063 h -3.96875 v -12.3803 h 3.96875 z m 0.110243,-14.14419 h -4.189236 v -3.00963 h 4.189236 z"
         style="font-style:normal;font-variant:normal;font-weight:bold;font-stretch:normal;font-size:22.57777786px;font-family:sans-serif;-inkscape-font-specification:'sans-serif Bold';fill:#0084c8;fill-opacity:1;stroke-width:0.26458332px"
         id="path1040"
         inkscape:connector-curvature="0" />
      <path
         d="m 110.86837,244.08063 h -3.9908 v -6.14054 q 0,-0.74965 -0.0772,-1.48828 -0.0772,-0.74965 -0.26458,-1.10243 -0.22049,-0.4079 -0.65043,-0.59532 -0.41893,-0.18741 -1.17961,-0.18741 -0.54019,0 -1.10243,0.17639 -0.55121,0.17639 -1.20165,0.56224 v 8.77535 h -3.968745 v -12.3803 h 3.968745 v 1.36702 q 1.05834,-0.82683 2.02848,-1.2678 0.98116,-0.44097 2.17179,-0.44097 2.00642,0 3.1309,1.16858 1.1355,1.16857 1.1355,3.4947 z"
         style="font-style:normal;font-variant:normal;font-weight:bold;font-stretch:normal;font-size:22.57777786px;font-family:sans-serif;-inkscape-font-specification:'sans-serif Bold';fill:#0084c8;fill-opacity:1;stroke-width:0.26458332px"
         id="path1042"
         inkscape:connector-curvature="0" />
      <path
         d="m 126.56699,242.65849 q 0,1.74184 -0.4961,2.93247 -0.49609,1.19062 -1.38906,1.8631 -0.89297,0.68351 -2.16076,0.98117 -1.25678,0.30868 -2.84428,0.30868 -1.28984,0 -2.54661,-0.15434 -1.24575,-0.15434 -2.16076,-0.37483 v -3.09783 h 0.48507 q 0.7276,0.28663 1.77491,0.51814 1.04731,0.24254 1.87413,0.24254 1.10243,0 1.78594,-0.20946 0.69453,-0.19844 1.05833,-0.57327 0.34176,-0.35277 0.4961,-0.90399 0.15434,-0.55121 0.15434,-1.32292 v -0.23151 q -0.71658,0.58429 -1.5875,0.92605 -0.87092,0.34175 -1.94028,0.34175 -2.60174,0 -4.01285,-1.56545 -1.41111,-1.56545 -1.41111,-4.7625 0,-1.53238 0.42995,-2.64584 0.42995,-1.11345 1.21267,-1.94027 0.72761,-0.77171 1.78594,-1.20165 1.06936,-0.42995 2.18281,-0.42995 1.00321,0 1.81901,0.24253 0.82682,0.23151 1.49931,0.65044 l 0.14331,-0.55122 h 3.84749 z m -3.96875,-2.48047 v -5.61137 q -0.34176,-0.14331 -0.83785,-0.22048 -0.4961,-0.0882 -0.89297,-0.0882 -1.56545,0 -2.34818,0.90399 -0.78272,0.89297 -0.78272,2.50252 0,1.78594 0.66146,2.49149 0.67248,0.70556 1.98437,0.70556 0.59531,0 1.16858,-0.18741 0.57326,-0.18742 1.04731,-0.4961 z"
         style="font-style:normal;font-variant:normal;font-weight:bold;font-stretch:normal;font-size:22.57777786px;font-family:sans-serif;-inkscape-font-specification:'sans-serif Bold';fill:#0084c8;fill-opacity:1;stroke-width:0.26458332px"
         id="path1044"
         inkscape:connector-curvature="0" />
      <path
         d="m 144.5807,239.05354 q 0,1.19063 -0.48507,2.1277 -0.47404,0.93706 -1.31189,1.55442 -0.97014,0.72761 -2.13872,1.03629 -1.15755,0.30868 -2.94349,0.30868 h -7.1658 v -16.41519 h 6.37205 q 1.98438,0 2.8994,0.13229 0.92604,0.13229 1.83003,0.58429 0.93707,0.47404 1.38906,1.27882 0.46302,0.79375 0.46302,1.81901 0,1.19062 -0.62838,2.10564 -0.62839,0.90399 -1.77492,1.41111 v 0.0882 q 1.60955,0.31971 2.54662,1.32292 0.94809,1.00321 0.94809,2.64583 z m -5.42396,-6.74687 q 0,-0.4079 -0.20946,-0.8158 -0.19844,-0.4079 -0.71658,-0.60634 -0.46302,-0.17639 -1.15755,-0.18741 -0.68351,-0.0221 -1.92926,-0.0221 h -0.39687 v 3.47266 h 0.66146 q 1.00321,0 1.70876,-0.0331 0.70556,-0.0331 1.11346,-0.22049 0.57326,-0.25356 0.74965,-0.65043 0.17639,-0.4079 0.17639,-0.93707 z m 1.03629,6.68073 q 0,-0.78273 -0.30868,-1.20165 -0.29766,-0.42995 -1.02526,-0.63941 -0.4961,-0.14332 -1.36702,-0.15434 -0.87092,-0.011 -1.81901,-0.011 h -0.92604 v 4.09002 h 0.30868 q 1.78594,0 2.55764,-0.011 0.7717,-0.011 1.42213,-0.28663 0.66146,-0.27561 0.904,-0.72761 0.25356,-0.46302 0.25356,-1.05833 z"
         style="font-style:normal;font-variant:normal;font-weight:bold;font-stretch:normal;font-size:22.57777786px;font-family:sans-serif;-inkscape-font-specification:'sans-serif Bold';fill:#0084c8;fill-opacity:1;stroke-width:0.26458332px"
         id="path1046"
         inkscape:connector-curvature="0" />
      <path
         d="m 153.10249,239.70398 2.82222,-8.00365 h 4.07899 l -6.87917,16.92231 h -4.29948 l 1.96233,-4.63021 -4.81762,-12.2921 h 4.16719 z"
         style="font-style:normal;font-variant:normal;font-weight:bold;font-stretch:normal;font-size:22.57777786px;font-family:sans-serif;-inkscape-font-specification:'sans-serif Bold';fill:#0084c8;fill-opacity:1;stroke-width:0.26458332px"
         id="path1048"
         inkscape:connector-curvature="0" />
      <path
         d="m 170.11299,243.97038 q -0.63941,0.16537 -1.35599,0.25356 -0.71658,0.0992 -1.75287,0.0992 -2.3151,0 -3.45061,-0.93706 -1.12448,-0.93707 -1.12448,-3.20808 v -5.78776 h -1.63159 v -2.68993 h 1.63159 v -3.5388 h 3.96875 v 3.5388 h 3.7152 v 2.68993 h -3.7152 v 4.38768 q 0,0.65043 0.011,1.1355 0.011,0.48507 0.17639,0.87092 0.15434,0.38585 0.54019,0.61736 0.39687,0.22049 1.14653,0.22049 0.30868,0 0.80477,-0.13229 0.50712,-0.1323 0.70556,-0.24254 h 0.33073 z"
         style="font-style:normal;font-variant:normal;font-weight:bold;font-stretch:normal;font-size:22.57777786px;font-family:sans-serif;-inkscape-font-specification:'sans-serif Bold';fill:#0084c8;fill-opacity:1;stroke-width:0.26458332px"
         id="path1050"
         inkscape:connector-curvature="0" />
      <path
         d="m 184.66507,238.6236 h -9.08402 q 0.0882,1.4552 1.10243,2.22691 1.02526,0.7717 3.00963,0.7717 1.25677,0 2.43637,-0.452 1.1796,-0.452 1.86311,-0.97014 h 0.44097 v 3.18603 q -1.34496,0.54019 -2.53559,0.78272 -1.19062,0.24254 -2.63481,0.24254 -3.72621,0 -5.71059,-1.6757 -1.98437,-1.67569 -1.98437,-4.77352 0,-3.06476 1.87413,-4.8507 1.88516,-1.79696 5.15938,-1.79696 3.02066,0 4.54201,1.53238 1.52135,1.52135 1.52135,4.38767 z m -3.9467,-2.32613 q -0.0331,-1.24575 -0.61736,-1.87413 -0.58429,-0.62839 -1.81901,-0.62839 -1.14653,0 -1.88515,0.59531 -0.73863,0.59532 -0.82683,1.90721 z"
         style="font-style:normal;font-variant:normal;font-weight:bold;font-stretch:normal;font-size:22.57777786px;font-family:sans-serif;-inkscape-font-specification:'sans-serif Bold';fill:#0084c8;fill-opacity:1;stroke-width:0.26458332px"
         id="path1052"
         inkscape:connector-curvature="0" />
      <path
         d="m 198.22497,240.15597 q 0,1.91823 -1.71979,3.09783 -1.71979,1.16858 -4.70738,1.16858 -1.65364,0 -2.99861,-0.30868 -1.34496,-0.30868 -2.16076,-0.68351 V 240.167 h 0.3638 q 0.29766,0.20946 0.68351,0.46302 0.39687,0.24253 1.11345,0.52917 0.61736,0.25356 1.40009,0.44097 0.78272,0.17639 1.67569,0.17639 1.16858,0 1.73082,-0.25356 0.56224,-0.26458 0.56224,-0.7717 0,-0.452 -0.33073,-0.65044 -0.33073,-0.20946 -1.25677,-0.39687 -0.44097,-0.0992 -1.20165,-0.20946 -0.74965,-0.12127 -1.36702,-0.28664 -1.68671,-0.44097 -2.50251,-1.36701 -0.8158,-0.93707 -0.8158,-2.32613 0,-1.78594 1.68672,-2.96554 1.69774,-1.19062 4.63021,-1.19062 1.38906,0 2.65685,0.28663 1.27882,0.27561 1.9954,0.59531 v 3.13091 h -0.34175 q -0.88195,-0.60634 -2.01745,-0.98117 -1.12448,-0.38585 -2.28203,-0.38585 -0.95911,0 -1.62057,0.26459 -0.65044,0.26458 -0.65044,0.74965 0,0.44097 0.29766,0.67248 0.29766,0.23151 1.40009,0.46302 0.60633,0.12127 1.30086,0.24254 0.70556,0.11024 1.41112,0.28663 1.56545,0.4079 2.3151,1.28984 0.74965,0.87092 0.74965,2.18281 z"
         style="font-style:normal;font-variant:normal;font-weight:bold;font-stretch:normal;font-size:22.57777786px;font-family:sans-serif;-inkscape-font-specification:'sans-serif Bold';fill:#0084c8;fill-opacity:1;stroke-width:0.26458332px"
         id="path1054"
         inkscape:connector-curvature="0" />
    </g>
  </g>
</svg>
